<?xml version="1.0" encoding="utf-8"?>
<!-- Generator: Adobe Illustrator 16.0.0, SVG Export Plug-In . SVG Version: 6.00 Build 0)  -->
<!DOCTYPE svg PUBLIC "-//W3C//DTD SVG 1.1//EN" "http://www.w3.org/Graphics/SVG/1.1/DTD/svg11.dtd">
<svg version="1.1" xmlns="http://www.w3.org/2000/svg" xmlns:xlink="http://www.w3.org/1999/xlink" x="0px" y="0px" width="72.75px"
	 height="73.75px" viewBox="0 0 72.75 73.75" enable-background="new 0 0 72.75 73.75" xml:space="preserve">
<g id="Layer_5" display="none">
	<rect display="inline" fill="none" stroke="#000000" stroke-miterlimit="10" width="100" height="50"/>
</g>
<g id="Layer_1">
	<path fill="#FFFFFF" d="M36.67,12.369c0,0,18.152,3.137,30.656-1.659l-4.625,17.572l7.326,11.72c0,0-11.434,11.135-38.299,6.328
		c0,0,4.723-3.182,4.723-6.328c0-3.145-2.957-3.273-2.957-3.273L36.67,12.369z"/>
	<g>
	</g>
	<g>
	</g>
	<path fill="#B2B3B3" stroke="#000000" stroke-miterlimit="10" d="M31.491,45.879c0,0,5.119-3.934,4.559-5.877
		c0,0-0.482-2.787-5.44-3.273L31.491,45.879z"/>
	<path fill="none" stroke="#000000" stroke-width="10" stroke-miterlimit="10" d="M36.452,40.002"/>
	<path fill="none" stroke="#000000" stroke-width="10" stroke-miterlimit="10" d="M36.452,26.031"/>
	<path fill="none" stroke="#000000" stroke-width="10" stroke-miterlimit="10" d="M36.67,6.608"/>
	
		<line fill="none" stroke="#000000" stroke-width="2" stroke-linecap="round" stroke-linejoin="round" stroke-miterlimit="10" x1="30.609" y1="46.33" x2="30.609" y2="35.51"/>
	<g>
	</g>
	<path fill="none" d="M32.413,29.977c0,0,9.126,8.207,30.289,1.508"/>
	<text transform="matrix(0.9279 0.3728 -0.3728 0.9279 33.5771 31.0801)"><tspan x="0" y="0" font-family="'MyriadPro-Bold'" font-size="11.2455">S</tspan><tspan x="7.365" y="-0.249" font-family="'MyriadPro-Bold'" font-size="11.2455" rotate="-15.702">E</tspan><tspan x="14.026" y="-2.19" font-family="'MyriadPro-Bold'" font-size="11.2455" rotate="-27.209">A</tspan><tspan x="21.135" y="-5.98" font-family="'MyriadPro-Bold'" font-size="11.2455" rotate="-35.503">T</tspan></text>
	<path fill="#FFFFFF" d="M3.665,7.682c0,0,28.325-9.417,32.636-0.5l-0.275,30.679c0,0-7.698-9.353-30.736-0.275L3.665,8.113"/>
	<path fill="none" d="M5.088,27.096c0,0,11.895-7.752,30.961-2.405"/>
	<text transform="matrix(0.9601 -0.2797 0.2797 0.9601 7.7197 25.4712)"><tspan x="0" y="0" font-family="'MyriadPro-Bold'" font-size="11.2454">O</tspan><tspan x="7.761" y="0.055" font-family="'MyriadPro-Bold'" font-size="11.2454" rotate="10.287">P</tspan><tspan x="13.944" y="1.184" font-family="'MyriadPro-Bold'" font-size="11.2454" rotate="18.274">E</tspan><tspan x="19.437" y="2.926" font-family="'MyriadPro-Bold'" font-size="11.2454" rotate="26.288">N</tspan></text>
	<path fill="none" stroke="#000000" stroke-width="2" stroke-linecap="round" stroke-linejoin="round" stroke-miterlimit="10" d="
		M3.665,7.136c0,0,28.551-10.02,33.077-0.527v5.549c0,0,16.91,3.544,30.584-1.448l-4.625,17.572l7.326,11.72
		c0,0-12.256,10.709-39.418,6.328c0,0,6.28-2.775,5.855-7.327c0,0-7.827-10.108-31.778-0.03"/>
</g>
<g id="Layer_4" display="none">
	<path display="inline" fill="#FFFFFF" d="M3.665,6.483c0,0,11.193,11.997,19.837,32.787c0,0-12.289-0.889-19.837-1.088V6.483z"/>
	<path display="inline" fill="#F9F9FA" d="M11.624,67.149l6.14-4.444l2.789,0.168l-2.109-9.541
		C18.442,53.332,11.094,61.33,11.624,67.149z"/>
	<path display="inline" fill="none" stroke="#000000" stroke-width="4" stroke-miterlimit="10" d="M-0.412,3.162"/>
	<path display="inline" fill="none" stroke="#000000" stroke-width="4" stroke-miterlimit="10" d="M-0.412,44.811"/>
</g>
<g id="Layer_2" display="none">
	<path display="inline" fill="#B2B3B3" stroke="#000000" stroke-miterlimit="10" d="M11.15,38.182l0.756,23.604l12.469-18.782
		C24.376,43.004,23.162,37.483,11.15,38.182z"/>
	<g display="inline">
	</g>
	<g display="inline">
	</g>
	
		<path display="inline" fill="none" stroke="#000000" stroke-width="2" stroke-linecap="round" stroke-linejoin="round" stroke-miterlimit="10" d="
		M5.547,38.182c0,0,18.8-1.396,18.851,5.199c0,0-12.492,13.323-13.248,27.591l4.996-7.603c1.421-1.252,4.406-0.496,4.406-0.496
		s-2.003-7.546-2.109-10.541"/>
	
		<path display="inline" fill="#FDFDFE" stroke="#000000" stroke-width="2" stroke-linecap="round" stroke-linejoin="round" stroke-miterlimit="10" d="
		M5.547,6.483c0,0,19.101,29.701,18.852,36.898"/>
	
		<path display="inline" fill="#FDFDFE" stroke="#000000" stroke-width="2" stroke-linecap="round" stroke-linejoin="round" stroke-miterlimit="10" d="
		M10.394,70.9c0,0,3.403-29.098,0-31.719"/>
</g>
<g id="Layer_3">
	
		<line stroke="#000000" stroke-width="4" stroke-linejoin="round" stroke-miterlimit="10" x1="3.665" y1="9.315" x2="3.665" y2="49.953"/>
	
		<line stroke="#000000" stroke-width="4" stroke-linecap="round" stroke-linejoin="round" stroke-miterlimit="10" x1="3.665" y1="5.939" x2="3.665" y2="42.496"/>
	<line fill="none" stroke="#000000" stroke-width="4" stroke-miterlimit="10" x1="-11" y1="54.331" x2="-11" y2="4.333"/>
</g>
</svg>
